<svg width="24" height="24" viewBox="0 0 24 24" fill="none">
<path d="M19.7471 8.82353C19.7471 4.45219 16.1949 0.899994 11.8236 0.899994C7.45222 0.899994 3.90002 4.45219 3.90002 8.82353C3.90002 11.4911 5.48949 14.6428 7.18879 17.263C8.89812 19.8986 10.7615 22.0598 11.3848 22.7612C11.6205 23.0263 12.0266 23.0263 12.2623 22.7612C12.8856 22.0598 14.749 19.8986 16.4583 17.263C18.1576 14.6428 19.7471 11.4911 19.7471 8.82353Z" fill="#25A59A" stroke="#019285"/>
<path d="M11.913 13.8377C14.5159 13.8377 16.6259 11.7277 16.6259 9.12474C16.6259 6.52183 14.5159 4.41174 11.913 4.41174C9.31003 4.41174 7.19995 6.52183 7.19995 9.12474C7.19995 11.7277 9.31003 13.8377 11.913 13.8377Z" fill="white"/>
</svg>